# xmcd
#
# Track frame offsets:
#	150
#	25224
#	49698
#	76532
#	103263
#	137168
#	166375
#	189215
#	213588
#	241917
#	268677
#	297005
#	317022
#	338557
#
# Disc length: 4754 seconds
#
# Revision: 1
# Processed by: cddbd v1.5.2PL0 Copyright (c) Steve Scherf et al.
# Submitted via: EZCDAudioConverter 2.0.7.1
#
DISCID=bc12900e
DTITLE=Teddy Pendergrass - The Essential
DYEAR=2007
DGENRE=R&B
TTITLE0=Feel The Fire (Duet With Stephanie Mills)
TTITLE1=Close The Door
TTITLE2=It's Time For Love
TTITLE3=Turn Off The Lights
TTITLE4=Wake Up Everybody
TTITLE5=Bad Luck
TTITLE6=Only You
TTITLE7=Get Up, Get Down, Get Funky, Get Loose
TTITLE8=It Should've Been You
TTITLE9=Hold Me (Duet With Whitney Houston)
TTITLE10=Joy
TTITLE11=This Gift Of Life
TTITLE12=I'll Never See Heaven Again
TTITLE13=I Want My Baby Back
EXTD=
EXTT0=
EXTT1=
EXTT2=
EXTT3=
EXTT4=
EXTT5=
EXTT6=
EXTT7=
EXTT8=
EXTT9=
EXTT10=
EXTT11=
EXTT12=
EXTT13=
PLAYORDER=
